<?xml version="1.0" standalone="no"?>
<!DOCTYPE svg PUBLIC "-//W3C//DTD SVG 20010904//EN"
 "http://www.w3.org/TR/2001/REC-SVG-20010904/DTD/svg10.dtd">
<svg version="1.0" xmlns="http://www.w3.org/2000/svg"
 width="512.000000pt" height="512.000000pt" viewBox="0 0 512.000000 512.000000"
 preserveAspectRatio="xMidYMid meet">
<metadata>
Created by potrace 1.14, written by Peter Selinger 2001-2017
</metadata>
<g transform="translate(0.000000,512.000000) scale(0.100000,-0.100000)"
fill="#000000" stroke="none">
<path d="M3910 4369 c-14 -5 -429 -413 -922 -907 l-898 -897 -427 427 c-460
458 -451 451 -534 433 -44 -10 -820 -783 -839 -836 -8 -22 -10 -50 -6 -75 7
-35 58 -90 484 -519 1073 -1078 1241 -1245 1267 -1255 37 -14 81 -12 113 4 42
23 2680 2667 2692 2699 15 43 12 78 -11 116 -11 18 -194 208 -407 420 -313
313 -394 389 -421 394 -43 9 -60 8 -91 -4z"/>
</g>
</svg>
